<svg xmlns="http://www.w3.org/2000/svg" viewBox="0 0 24 24" width="24" height="24" fill="#0D47A1" aria-hidden="true">
  <path d="M12 2C6.48 2 2 6.58 2 12.26c0 4.52 2.87 8.35 6.84 9.7.5.09.68-.22.68-.49 0-.24-.01-.88-.01-1.73-2.78.62-3.37-1.37-3.37-1.37-.46-1.18-1.12-1.49-1.12-1.49-.92-.65.07-.64.07-.64 1.02.07 1.56 1.07 1.56 1.07.9 1.58 2.36 1.12 2.94.86.09-.67.35-1.12.63-1.38-2.22-.26-4.56-1.13-4.56-5.04 0-1.11.39-2.01 1.03-2.72-.1-.26-.45-1.3.1-2.71 0 0 .84-.27 2.75 1.04a9.3 9.3 0 0 1 5 0c1.9-1.31 2.74-1.04 2.74-1.04.56 1.41.2 2.45.1 2.71.64.71 1.03 1.61 1.03 2.72 0 3.92-2.34 4.77-4.57 5.03.36.32.68.95.68 1.92 0 1.38-.01 2.5-.01 2.84 0 .27.18.59.69.49A10.01 10.01 0 0 0 22 12.26C22 6.58 17.52 2 12 2z"/>
</svg>
