<svg xmlns="http://www.w3.org/2000/svg" viewBox="0 0 24 24" width="24" height="24" fill="#1B5E20" aria-hidden="true">
  <path d="M12 2a10 10 0 1 0 0 20 10 10 0 0 0 0-20Zm7.93 9h-3.17a15.5 15.5 0 0 0-1.13-4.06A8.02 8.02 0 0 1 19.93 11ZM12 4.07c.9 1.16 1.63 2.74 2.07 4.93H9.93C10.37 6.8 11.1 5.23 12 4.07ZM4.07 13h3.17c.2 1.48.62 2.87 1.13 4.06A8.02 8.02 0 0 1 4.07 13Zm3.17-2H4.07a8.02 8.02 0 0 1 4.3-4.06A15.5 15.5 0 0 0 7.24 11ZM12 19.93c-.9-1.16-1.63-2.74-2.07-4.93h4.14c-.44 2.19-1.17 3.77-2.07 4.93Zm2.83-6.93H9.17c-.1-.64-.17-1.31-.17-2s.07-1.36.17-2h5.66c.1.64.17 1.31.17 2s-.07 1.36-.17 2Zm.8 4.06c.51-1.19.93-2.58 1.13-4.06h3.17a8.02 8.02 0 0 1-4.3 4.06Z"/>
</svg>
